<?xml version="1.0" encoding="UTF-8" standalone="no"?>
<!-- Created with Inkscape (http://www.inkscape.org/) -->

<svg
   xmlns:dc="http://purl.org/dc/elements/1.1/"
   xmlns:cc="http://creativecommons.org/ns#"
   xmlns:rdf="http://www.w3.org/1999/02/22-rdf-syntax-ns#"
   xmlns:svg="http://www.w3.org/2000/svg"
   xmlns="http://www.w3.org/2000/svg"
   xmlns:sodipodi="http://sodipodi.sourceforge.net/DTD/sodipodi-0.dtd"
   xmlns:inkscape="http://www.inkscape.org/namespaces/inkscape"
   width="300"
   height="120"
   id="svg3128"
   version="1.1"
   inkscape:version="0.48.4 r9939"
   sodipodi:docname="linux-logo.svg">
  <defs
     id="defs3130" />
  <sodipodi:namedview
     id="base"
     pagecolor="#ffffff"
     bordercolor="#666666"
     borderopacity="1.0"
     inkscape:pageopacity="0.0"
     inkscape:pageshadow="2"
     inkscape:zoom="5.6"
     inkscape:cx="86.51668"
     inkscape:cy="71.130394"
     inkscape:document-units="px"
     inkscape:current-layer="layer1"
     showgrid="false"
     inkscape:window-width="1920"
     inkscape:window-height="1023"
     inkscape:window-x="0"
     inkscape:window-y="0"
     inkscape:window-maximized="1" />
  <metadata
     id="metadata3133">
    <rdf:RDF>
      <cc:Work
         rdf:about="">
        <dc:format>image/svg+xml</dc:format>
        <dc:type
           rdf:resource="http://purl.org/dc/dcmitype/StillImage" />
        <dc:title></dc:title>
      </cc:Work>
    </rdf:RDF>
  </metadata>
  <g
     inkscape:label="Layer 1"
     inkscape:groupmode="layer"
     id="layer1"
     transform="translate(0,-932.36217)">
    <path
       style="fill:none;stroke:#800080;stroke-width:0.22933723;stroke-linecap:butt;stroke-linejoin:miter;stroke-miterlimit:4;stroke-opacity:1;stroke-dasharray:none"
       d="m 289.65842,995.79478 -204.206935,0"
       id="path3093"
       inkscape:connector-curvature="0"
       sodipodi:nodetypes="cc" />
    <path
       sodipodi:nodetypes="cc"
       inkscape:connector-curvature="0"
       id="path3095"
       d="m 49.744584,995.79478 -39.345671,0"
       style="fill:none;stroke:#800080;stroke-width:0.34400585;stroke-linecap:butt;stroke-linejoin:miter;stroke-miterlimit:4;stroke-opacity:1;stroke-dasharray:none" />
    <path
       inkscape:connector-curvature="0"
       id="path3099"
       d="m 141.6808,981.88571 c 0,0 0.35822,2.21884 0.35822,4.94496 l 0,20.85543 c -0.039,1.3628 -1.07352,2.4368 -2.43647,2.4365 l -0.71691,0 -0.0711,0.4303 8.24192,0 0,-0.4303 -0.7169,0 c -1.36272,0 -2.39635,-1.0419 -2.43648,-2.3649 l 0,-19.99546 21.85859,23.36396 0.35823,0 c 0,0 -0.35823,-2.5945 -0.35823,-5.1601 l 0,-20.71212 c 0.0802,-1.32305 1.11365,-2.4367 2.43671,-2.4367 l 0.78823,0 0,-0.35823 -8.2417,0 0,0.35823 0.71668,0 c 1.36295,0 2.39658,1.11365 2.43671,2.4367 l 0,19.92372 -21.85882,-23.29199 -0.35823,0 z m -37.6973,0.57334 0,0.42978 0.50156,0 c 1.40308,0 2.58004,1.14554 2.58004,2.50849 l 0,22.21708 c 0,1.3629 -1.17673,2.5085 -2.58004,2.5082 l -0.50156,0 0,0.4303 16.62694,0 2.29338,-6.5219 -0.35846,0 c -1.24277,3.0467 -2.84562,5.3034 -7.095,5.3034 l -5.80522,0 0,-23.93708 c 0.039,-1.36295 1.17697,-2.50826 2.58005,-2.50849 l 0.50179,0 0,-0.42978 -8.74348,0 z m 21.93037,0 0,0.35823 0.50179,0 c 1.40286,0 2.57981,1.17695 2.58004,2.58004 l 0,22.21708 c 0,1.3629 -1.17718,2.5082 -2.58004,2.5082 l -0.50179,0 0,0.3585 8.74348,0 0,-0.3585 -0.50156,0 c -1.40308,0 -2.53991,-1.1453 -2.58004,-2.5082 l 0,-22.21708 c 0.039,-1.40309 1.21686,-2.58004 2.58004,-2.58004 l 0.50156,0 0,-0.35823 -8.74348,0 z m 46.87079,0 0,0.35823 0.64513,0 c 1.16251,0 2.10968,0.84419 2.1498,2.0067 l 0,15.83852 c 0,6.2538 4.45374,10.4637 11.10864,10.4637 6.49437,0 10.82197,-4.2414 10.82197,-10.5353 l 0,-15.83848 c 0.039,-1.12261 0.95587,-1.93514 2.07825,-1.93514 l 0.71668,0 0,-0.35823 -7.45346,0 0,0.35823 0.64512,0 c 1.12239,0 2.10968,0.88431 2.14981,2.0067 l 0,15.76692 c 0,5.5321 -3.58661,9.2451 -8.95837,9.2451 -5.09128,0 -8.52859,-3.894 -8.52859,-9.7469 l 0,-15.26512 c 0.039,-1.12239 0.9561,-2.0067 2.07848,-2.0067 l 0.71668,0 0,-0.35823 -8.17014,0 z m 29.74206,0 0,0.35823 0.57334,0 c 1.68379,0 3.17196,1.12237 4.0134,2.36492 l 7.09524,11.10864 -7.74013,11.46686 c -0.8419,1.2026 -2.40139,2.3649 -4.08496,2.3649 l -0.50179,0 0,0.3585 9.03016,0 0,-0.3585 -0.43001,0 c -1.08247,0 -2.11471,-1.3141 -1.43336,-2.4365 l 6.16344,-9.74679 6.16344,9.74679 c 0.64123,1.1224 -0.35089,2.4368 -1.43336,2.4365 l -0.50179,0 0,0.3585 9.81861,0 0,-0.3585 -0.57334,0 c -1.64366,0 -3.1715,-1.1221 -4.0134,-2.3649 l -7.81192,-12.18354 7.02369,-10.39196 c 0.84189,-1.24278 2.40139,-2.29337 4.08495,-2.29337 l 0.50179,0 0,-0.42978 -9.03038,0 0,0.42978 0.50179,0 c 1.08247,0 2.04317,1.34598 1.36181,2.50849 l -5.44677,8.60015 -5.51853,-8.74349 c -0.64147,-1.12261 0.35088,-2.4367 1.43335,-2.4367 l 0.50156,0 0,-0.35823 -9.74683,0 z"
       style="font-size:17.48031044px;font-style:normal;font-variant:normal;font-weight:normal;font-stretch:normal;line-height:125%;letter-spacing:0px;word-spacing:0px;fill:#800080;fill-opacity:1;stroke:none;font-family:Cinzel;-inkscape-font-specification:Cinzel" />
    <path
       style="fill:#800080;fill-opacity:1;stroke:none"
       d="m 77.939043,942.36265 c -5.93066,0.055 -12.793574,4.9984 -18.4488,14.25147 -10.470855,17.13287 -19.198048,58.64408 6.836311,85.74808 -22.461748,-26.6057 -17.79634,-66.89106 -2.030323,-86.67185 0.02751,0.24837 0.0642,0.49124 0.10549,0.73227 -0.02288,-0.21557 -0.02288,-0.43368 -0.02288,-0.65544 0.841661,4.97684 5.869883,8.91503 10.513967,11.69322 3.396479,2.03169 8.111881,4.97042 12.306464,8.74325 -2.795857,-3.87075 -5.18578,-7.68693 -5.487124,-11.14396 -1.379467,-15.82541 14.096897,-19.51132 20.951786,-19.75143 -3.615497,-2.23421 -13.890035,-2.84631 -19.602368,-1.60491 -1.579212,-0.91552 -3.309563,-1.3579 -5.124996,-1.3407 z m -2.877496,27.32393 c 0.705676,10.90016 -6.621884,20.07113 -2.575457,40.05192 1.887447,9.3191 9.932595,18.765 20.985962,20.4621 -9.443874,-8.1802 -9.282879,-22.2392 -7.734625,-34.65855 0.310523,-2.49106 0.85864,-5.1016 0.723562,-8.45383 3.901022,1.48519 8.200179,2.78897 10.433461,6.72142 -0.456606,-2.79952 -1.324648,-5.24472 -2.481881,-7.41517 -0.721728,-1.22282 -1.558581,-2.46812 -2.451847,-3.72466 -4.184487,-5.27178 -10.131894,-8.66712 -15.128464,-11.86361 -0.571738,-0.3658 -1.169617,-0.74007 -1.770711,-1.11962 z m 21.832903,24.12306 c 0.02297,-0.51762 -0.02289,-1.04234 -0.105491,-1.57922 0.05965,0.52037 0.09402,1.04578 0.105491,1.57922 z"
       id="path3102"
       inkscape:connector-curvature="0" />
  </g>
</svg>
